<?xml version="1.0" encoding="utf-8"?>
<!-- Generator: Adobe Illustrator 22.1.0, SVG Export Plug-In . SVG Version: 6.00 Build 0)  -->
<svg version="1.1" xmlns="http://www.w3.org/2000/svg" xmlns:xlink="http://www.w3.org/1999/xlink" x="0px" y="0px"
	 viewBox="0 0 2272 1872" style="enable-background:new 0 0 2272 1872;" xml:space="preserve">
<style type="text/css">
	.st0{fill:#875E73;}
	.st1{fill:none;stroke:#FFFFFF;stroke-width:5;stroke-miterlimit:10;}
	.st2{fill:#875E73;stroke:#FFFFFF;stroke-width:5;stroke-miterlimit:10;}
	.st3{fill:none;stroke:#FFFFFF;stroke-width:8;stroke-miterlimit:10;stroke-dasharray:24.9848,24.9848;}
	.st4{fill:#313233;}
	.st5{fill:#6D7795;}
	.st6{fill:#D1D2D4;}
	.st7{fill:#F2F2F2;}
	.st8{fill:#E0E0E0;}
	.st9{fill:#FFFFFF;}
	.st10{fill:#39BCAC;}
	.st11{opacity:5.000000e-02;}
	.st12{fill:#2077A0;}
	.st13{fill:#FCA919;}
	.st14{fill:#FFFFF6;}
	.st15{opacity:0.1;}
	.st16{fill:#003855;}
	.st17{fill:#F5506C;}
	.st18{fill:#B9BABF;}
	.st19{fill:#275869;}
	.st20{fill:#EA9800;}
	.st21{fill:#DE7D1E;}
	.st22{fill:#D0CFD4;}
	.st23{fill:none;stroke:#313233;stroke-width:3;stroke-linecap:round;stroke-linejoin:round;stroke-miterlimit:10;}
</style>
<g id="background">
	<rect class="st0" width="2272" height="1872"/>
</g>
<g id="object">
	<g>
		<polyline class="st1" points="1770.8,968.7 1770.8,1010 1701.6,1079.3 1701.6,1132.1 		"/>
		<polyline class="st1" points="1887.6,1050.3 1859.4,1050.3 1838.3,1029.5 1791.7,1029.5 1791.7,1008.6 		"/>
		<polyline class="st1" points="1701.6,1224.1 1701.6,1132.1 1791.7,1132.1 		"/>
		<polyline class="st1" points="1701.6,1132.1 1611.4,1132.1 1554.9,1188.7 1422,1188.7 		"/>
		<line class="st1" x1="1838.3" y1="1029.5" x2="1838.3" y2="1178.1"/>
		<path class="st2" d="M1762.3,969.3c0,4.7,3.8,8.5,8.5,8.5c4.7,0,8.5-3.8,8.5-8.5s-3.8-8.5-8.5-8.5
			C1766.2,960.8,1762.3,964.6,1762.3,969.3z"/>
		<path class="st2" d="M1693.1,1224.1c0,4.7,3.8,8.5,8.5,8.5c4.7,0,8.5-3.8,8.5-8.5c0-4.7-3.8-8.5-8.5-8.5
			C1696.9,1215.6,1693.1,1219.4,1693.1,1224.1z"/>
		<path class="st2" d="M1783.2,1132.1c0,4.7,3.8,8.5,8.5,8.5c4.7,0,8.5-3.8,8.5-8.5c0-4.7-3.8-8.5-8.5-8.5
			C1787,1123.6,1783.2,1127.4,1783.2,1132.1z"/>
		<path class="st2" d="M1829.8,1178.1c0,4.7,3.8,8.5,8.5,8.5c4.7,0,8.5-3.8,8.5-8.5c0-4.7-3.8-8.5-8.5-8.5
			C1833.6,1169.6,1829.8,1173.4,1829.8,1178.1z"/>
		<path class="st2" d="M1879.1,1050.3c0,4.7,3.8,8.5,8.5,8.5c4.7,0,8.5-3.8,8.5-8.5c0-4.7-3.8-8.5-8.5-8.5
			C1882.9,1041.8,1879.1,1045.6,1879.1,1050.3z"/>
		<polyline class="st1" points="1770.8,1010 1848,1008.6 1848,799.4 		"/>
		<line class="st1" x1="1931.2" y1="897" x2="1848" y2="897"/>
	</g>
	<g>
		<polyline class="st1" points="501.2,938.7 501.2,980 570.4,1049.3 570.4,1102.1 		"/>
		<polyline class="st1" points="384.4,1020.3 412.6,1020.3 433.7,999.5 480.3,999.5 480.3,978.6 		"/>
		<polyline class="st1" points="570.4,1194.1 570.4,1102.1 480.3,1102.1 		"/>
		<polyline class="st1" points="570.4,1102.1 660.6,1102.1 717.1,1158.7 850,1158.7 		"/>
		<line class="st1" x1="433.7" y1="999.5" x2="433.7" y2="1148.1"/>
		<path class="st2" d="M509.7,939.3c0,4.7-3.8,8.5-8.5,8.5c-4.7,0-8.5-3.8-8.5-8.5s3.8-8.5,8.5-8.5
			C505.8,930.8,509.7,934.6,509.7,939.3z"/>
		<path class="st2" d="M578.9,1194.1c0,4.7-3.8,8.5-8.5,8.5c-4.7,0-8.5-3.8-8.5-8.5c0-4.7,3.8-8.5,8.5-8.5
			C575.1,1185.6,578.9,1189.4,578.9,1194.1z"/>
		<path class="st2" d="M488.8,1102.1c0,4.7-3.8,8.5-8.5,8.5s-8.5-3.8-8.5-8.5c0-4.7,3.8-8.5,8.5-8.5S488.8,1097.4,488.8,1102.1z"/>
		<path class="st2" d="M442.2,1148.1c0,4.7-3.8,8.5-8.5,8.5s-8.5-3.8-8.5-8.5c0-4.7,3.8-8.5,8.5-8.5S442.2,1143.4,442.2,1148.1z"/>
		<path class="st2" d="M392.9,1020.3c0,4.7-3.8,8.5-8.5,8.5c-4.7,0-8.5-3.8-8.5-8.5c0-4.7,3.8-8.5,8.5-8.5
			C389.1,1011.8,392.9,1015.6,392.9,1020.3z"/>
		<polyline class="st1" points="501.2,980 424,978.6 424,769.4 504.2,689.3 504.2,581 		"/>
		<line class="st1" x1="340.8" y1="867" x2="424" y2="867"/>
	</g>
	<g>
		<circle class="st3" cx="1136" cy="936" r="795.2"/>
	</g>
	<g>
		<path class="st4" d="M1672.9,690.3c0-19.6-15.9-35.5-35.5-35.5H634.6c-19.6,0-35.5,15.9-35.5,35.5v607.1h1073.8V690.3z"/>
		<rect x="642.7" y="698.4" class="st5" width="986.7" height="555.5"/>
		<path class="st6" d="M599.1,1297.5v64.7c0,19.6,15.9,35.5,35.5,35.5h1002.9c19.6,0,35.5-15.9,35.5-35.5v-64.7H599.1z"/>
		<circle class="st4" cx="1136" cy="1347.6" r="24.7"/>
		<polygon class="st7" points="1244.3,1397.7 1027.7,1397.7 965,1524.5 1307,1524.5 		"/>
		<path class="st6" d="M1367.4,1549.8H904.6c-7,0-12.7-5.7-12.7-12.7v0c0-7,5.7-12.7,12.7-12.7h462.8c7,0,12.7,5.7,12.7,12.7v0
			C1380.1,1544.1,1374.4,1549.8,1367.4,1549.8z"/>
		<g>
			<path class="st8" d="M1379.8,1191.8l-487.8-0.2c-12.9,0-23.3-10.4-23.3-23.3l0.2-384.5c0-12.9,10.4-23.3,23.3-23.3l487.8,0.2
				c12.9,0,23.3,10.4,23.3,23.3l-0.2,384.5C1403.1,1181.4,1392.7,1191.8,1379.8,1191.8z"/>
			<path class="st9" d="M1310,931.6l-348-0.1c-6.4,0-11.6-5.2-11.6-11.7l0-66c0-6.4,5.2-11.6,11.7-11.6l348,0.1
				c6.4,0,11.6,5.2,11.6,11.7l0,66C1321.7,926.4,1316.4,931.6,1310,931.6z"/>
			<path class="st9" d="M1309.9,1110.2l-348-0.1c-6.4,0-11.6-5.2-11.6-11.7l0-66c0-6.4,5.2-11.6,11.7-11.6l348,0.1
				c6.4,0,11.6,5.2,11.6,11.7l0,66C1321.6,1105,1316.4,1110.2,1309.9,1110.2z"/>
			<g>
				<path class="st10" d="M1005.6,886.9c-18,0-32.6,14.6-32.6,32.6h65.2C1038.2,901.5,1023.6,886.8,1005.6,886.9z"/>
				<path class="st10" d="M1021.9,870.5c0,9-7.3,16.3-16.3,16.3c-9,0-16.3-7.3-16.3-16.3c0-9,7.3-16.3,16.3-16.3
					C1014.6,854.2,1021.9,861.5,1021.9,870.5z"/>
			</g>
			<g>
				<g>
					<path class="st10" d="M1026.6,1066.7l-41.9,0l0-11.9c0-11.4,9.3-20.7,20.7-20.7h0.5c11.4,0,20.7,9.3,20.7,20.7V1066.7z
						 M989.3,1062l32.6,0l0-7.3c0-8.9-7.2-16.1-16.1-16.1h-0.5c-8.9,0-16.1,7.2-16.1,16.1V1062z"/>
				</g>
				<path class="st10" d="M1026.6,1059.7h-41.9c-2.6,0-4.7,2.1-4.7,4.7v28c0,2.6,2.1,4.7,4.7,4.7h41.9c2.6,0,4.7-2.1,4.7-4.7v-28
					C1031.2,1061.8,1029.1,1059.7,1026.6,1059.7z M1005.6,1079.9c-2.6,0-4.7-2.1-4.7-4.7c0-2.6,2.1-4.7,4.7-4.7
					c2.6,0,4.7,2.1,4.7,4.7C1010.3,1077.8,1008.2,1079.9,1005.6,1079.9z"/>
			</g>
			<g>
				<path class="st8" d="M1081,1065.5c0,5.6-4.5,10.1-10.1,10.1c-5.6,0-10.1-4.5-10.1-10.1c0-5.6,4.5-10.1,10.1-10.1
					C1076.5,1055.4,1081,1059.9,1081,1065.5z"/>
				<path class="st8" d="M1111.3,1065.5c0,5.6-4.5,10.1-10.1,10.1c-5.6,0-10.1-4.5-10.1-10.1s4.5-10.1,10.1-10.1
					C1106.7,1055.4,1111.3,1059.9,1111.3,1065.5z"/>
				<path class="st8" d="M1141.5,1065.5c0,5.6-4.5,10.1-10.1,10.1c-5.6,0-10.1-4.5-10.1-10.1c0-5.6,4.5-10.1,10.1-10.1
					S1141.5,1059.9,1141.5,1065.5z"/>
				<path class="st8" d="M1171.7,1065.5c0,5.6-4.5,10.1-10.1,10.1c-5.6,0-10.1-4.5-10.1-10.1c0-5.6,4.5-10.1,10.1-10.1
					C1167.2,1055.4,1171.7,1059.9,1171.7,1065.5z"/>
				<path class="st8" d="M1202,1065.5c0,5.6-4.5,10.1-10.1,10.1c-5.6,0-10.1-4.5-10.1-10.1c0-5.6,4.5-10.1,10.1-10.1
					C1197.5,1055.4,1202,1059.9,1202,1065.5z"/>
				<path class="st8" d="M1232.2,1065.5c0,5.6-4.5,10.1-10.1,10.1c-5.6,0-10.1-4.5-10.1-10.1c0-5.6,4.5-10.1,10.1-10.1
					C1227.7,1055.4,1232.2,1059.9,1232.2,1065.5z"/>
				<path class="st8" d="M1262.5,1065.5c0,5.6-4.5,10.1-10.1,10.1c-5.6,0-10.1-4.5-10.1-10.1s4.5-10.1,10.1-10.1
					C1258,1055.4,1262.5,1059.9,1262.5,1065.5z"/>
				<path class="st8" d="M1292.7,1065.5c0,5.6-4.5,10.1-10.1,10.1c-5.6,0-10.1-4.5-10.1-10.1s4.5-10.1,10.1-10.1
					C1288.2,1055.4,1292.7,1059.9,1292.7,1065.5z"/>
			</g>
		</g>
		<g class="st11">
			<polygon points="1629.3,698.4 1629.3,1253.9 858.3,1253.9 1413.7,698.4 			"/>
		</g>
	</g>
	<path class="st12" d="M1896.3,1338.4c-13.3,0-26,2.9-37.4,7.9c-11.2-49.6-55.4-86.7-108.4-86.7c-60.2,0-109.1,47.8-111.1,107.5
		c-3.7-0.6-7.4-0.9-11.3-0.9c-43.3,0-78.4,35.1-78.4,78.4c0,43.3,35.1,78.4,78.4,78.4h268.1c51,0,92.3-41.3,92.3-92.4
		C1988.6,1379.8,1947.2,1338.4,1896.3,1338.4z"/>
	<g>
		<path class="st13" d="M1741,579.3l-143.8,57.5v9.4c0,54.6,12.5,109.5,36.2,158.7c23.7,49.2,58.7,93.3,101.3,127.4l6.3,5l6.3-5
			c42.6-34.1,77.7-78.2,101.3-127.4c23.7-49.2,36.2-104.1,36.2-158.7v-9.4L1741,579.3z"/>
		<path class="st14" d="M1741,698.4c-47.6,0-89.9,45-89.9,45s42.3,45,89.9,45c47.6,0,89.9-45,89.9-45S1788.7,698.4,1741,698.4z"/>
		<circle class="st4" cx="1741" cy="743.4" r="22.5"/>
		<path class="st15" d="M1741,579.3v358l6.3-5c42.6-34.1,77.7-78.2,101.3-127.4c23.7-49.2,36.2-104.1,36.2-158.7v-9.4L1741,579.3z"
			/>
	</g>
	<g>
		<g>
			<path class="st12" d="M843.9,1539.2l0-156.3c0-5.9-4.8-10.6-10.6-10.6H584.5c-5.9,0-10.6,4.8-10.6,10.6v156.3
				c0,5.9,4.8,10.6,10.6,10.6l248.7,0C839.1,1549.8,843.9,1545,843.9,1539.2z"/>
		</g>
		<g>
			
				<rect x="573.9" y="1410.1" transform="matrix(-1 -1.224647e-16 1.224647e-16 -1 1417.8042 2844.1545)" class="st4" width="270" height="23.9"/>
		</g>
		<g>
			<path class="st9" d="M594.1,1474.1h229.6c2.2,0,4.1-1.8,4.1-4.1c0-2.2-1.8-4.1-4.1-4.1H594.1c-2.2,0-4.1,1.8-4.1,4.1
				C590,1472.3,591.9,1474.1,594.1,1474.1z"/>
		</g>
		<g>
			<path class="st9" d="M594.1,1495.4h229.6c2.2,0,4.1-1.8,4.1-4.1c0-2.2-1.8-4.1-4.1-4.1H594.1c-2.2,0-4.1,1.8-4.1,4.1
				C590,1493.5,591.9,1495.4,594.1,1495.4z"/>
		</g>
		<g>
			<path class="st9" d="M594.1,1516.6h229.6c2.2,0,4.1-1.8,4.1-4.1c0-2.2-1.8-4.1-4.1-4.1H594.1c-2.2,0-4.1,1.8-4.1,4.1
				C590,1514.8,591.9,1516.6,594.1,1516.6z"/>
		</g>
		<g>
			<g class="st15">
				<path d="M833.3,1372.2h-35.6l-177.5,177.5l213.1,0c5.9,0,10.6-4.8,10.6-10.6l0-156.3C843.9,1377,839.1,1372.2,833.3,1372.2z"/>
			</g>
		</g>
	</g>
	<g>
		<path class="st16" d="M643.1,1311.8l-348-0.1c-6.4,0-11.6-5.2-11.6-11.7l0-66c0-6.4,5.2-11.6,11.7-11.6l348,0.1
			c6.4,0,11.6,5.2,11.6,11.7l0,66C654.7,1306.6,649.5,1311.8,643.1,1311.8z"/>
		<g>
			<g>
				<path class="st13" d="M359.7,1268.3l-41.9,0l0-11.9c0-11.4,9.3-20.7,20.7-20.7h0.5c11.4,0,20.7,9.3,20.7,20.7V1268.3z
					 M322.4,1263.6l32.6,0l0-7.3c0-8.9-7.2-16.1-16.1-16.1h-0.5c-8.9,0-16.1,7.2-16.1,16.1V1263.6z"/>
			</g>
			<path class="st13" d="M359.7,1261.3h-41.9c-2.6,0-4.7,2.1-4.7,4.7v28c0,2.6,2.1,4.7,4.7,4.7h41.9c2.6,0,4.7-2.1,4.7-4.7v-28
				C364.4,1263.4,362.3,1261.3,359.7,1261.3z M338.7,1281.5c-2.6,0-4.7-2.1-4.7-4.7c0-2.6,2.1-4.7,4.7-4.7c2.6,0,4.7,2.1,4.7,4.7
				C343.4,1279.4,341.3,1281.5,338.7,1281.5z"/>
		</g>
		<polygon class="st13" points="404.1,1257.5 407.2,1263.8 414.1,1264.8 409.1,1269.8 410.3,1276.7 404.1,1273.4 397.8,1276.7 
			399,1269.8 394,1264.8 400.9,1263.8 		"/>
		<polygon class="st13" points="434.3,1257.5 437.4,1263.8 444.4,1264.8 439.3,1269.8 440.5,1276.7 434.3,1273.4 428.1,1276.7 
			429.3,1269.8 424.2,1264.8 431.2,1263.8 		"/>
		<polygon class="st13" points="464.5,1257.5 467.7,1263.8 474.6,1264.8 469.6,1269.8 470.8,1276.7 464.5,1273.4 458.3,1276.7 
			459.5,1269.8 454.5,1264.8 461.4,1263.8 		"/>
		<polygon class="st13" points="494.8,1257.5 497.9,1263.8 504.9,1264.8 499.8,1269.8 501,1276.7 494.8,1273.4 488.6,1276.7 
			489.8,1269.8 484.7,1264.8 491.7,1263.8 		"/>
		<polygon class="st13" points="525,1257.5 528.1,1263.8 535.1,1264.8 530.1,1269.8 531.3,1276.7 525,1273.4 518.8,1276.7 
			520,1269.8 515,1264.8 521.9,1263.8 		"/>
		<polygon class="st13" points="555.3,1257.5 558.4,1263.8 565.4,1264.8 560.3,1269.8 561.5,1276.7 555.3,1273.4 549,1276.7 
			550.2,1269.8 545.2,1264.8 552.2,1263.8 		"/>
		<polygon class="st13" points="585.5,1257.5 588.6,1263.8 595.6,1264.8 590.6,1269.8 591.7,1276.7 585.5,1273.4 579.3,1276.7 
			580.5,1269.8 575.4,1264.8 582.4,1263.8 		"/>
		<polygon class="st13" points="615.8,1257.5 618.9,1263.8 625.8,1264.8 620.8,1269.8 622,1276.7 615.8,1273.4 609.5,1276.7 
			610.7,1269.8 605.7,1264.8 612.6,1263.8 		"/>
		<g class="st15">
			<path d="M283.5,1267.1l0,32.9c0,6.4,5.2,11.7,11.6,11.7l348,0.1c6.4,0,11.7-5.2,11.7-11.6l0-33.1H283.5z"/>
		</g>
	</g>
	<g>
		<circle class="st9" cx="531" cy="932.1" r="142.8"/>
		<path class="st17" d="M531,788.4c-79.4,0-143.8,64.4-143.8,143.8s64.4,143.8,143.8,143.8s143.8-64.4,143.8-143.8
			S610.4,788.4,531,788.4z M531,1047.5c-63.6,0-115.4-51.8-115.4-115.4c0-63.6,51.8-115.4,115.4-115.4s115.4,51.8,115.4,115.4
			C646.4,995.8,594.6,1047.5,531,1047.5z"/>
		<g>
			<g>
				<path class="st18" d="M531,951.4c-31.6,0-57.2-25.7-57.2-57.2c0-31.6,25.7-57.2,57.2-57.2s57.2,25.7,57.2,57.2
					C588.2,925.7,562.5,951.4,531,951.4z M531,846.1c-26.5,0-48,21.6-48,48c0,26.5,21.6,48,48,48c26.5,0,48-21.6,48-48
					C579,867.7,557.5,846.1,531,846.1z"/>
			</g>
			<path class="st12" d="M569.7,894.2c-9.2,11.2-23.1,18.4-38.7,18.4c-15.6,0-29.6-7.2-38.7-18.4h-27.9v37.7
				c0,42.6,26.6,80.7,66.6,95.5l0,0h0c40-14.7,66.6-52.8,66.6-95.5v-37.7H569.7z"/>
			<path class="st19" d="M544.9,949.9c0-7.7-6.2-13.9-13.9-13.9c-7.7,0-13.9,6.2-13.9,13.9c0,6.1,3.9,11.2,9.3,13.1l-5,22.5h19.2
				l-5-22.5C541,961.1,544.9,955.9,544.9,949.9z"/>
		</g>
		
			<rect x="516.8" y="807.5" transform="matrix(0.7071 -0.7071 0.7071 0.7071 -503.5985 648.4638)" class="st17" width="28.4" height="249.2"/>
		<path class="st15" d="M531,788.4v287.5c79.4,0,143.8-64.4,143.8-143.8S610.4,788.4,531,788.4z"/>
	</g>
	<g>
		<g>
			<path class="st17" d="M1659.2,1575h-330.7c-10.1,0-16.7-10.7-12.2-19.7l165.3-330.7c5-10.1,19.4-10.1,24.4,0l165.3,330.7
				C1676,1564.3,1669.4,1575,1659.2,1575z"/>
		</g>
		<g>
			<g>
				<path class="st9" d="M1508.1,1507.8c0,7.8-6.4,14.2-14.2,14.2c-7.8,0-14.2-6.4-14.2-14.2c0-7.8,6.4-14.2,14.2-14.2
					C1501.7,1493.6,1508.1,1500,1508.1,1507.8z"/>
			</g>
			<path class="st9" d="M1493.9,1480.6L1493.9,1480.6c-8.2,0-14.9-6.7-14.9-14.9v-109.4c0-8.2,6.7-14.9,14.9-14.9l0,0
				c8.2,0,14.9,6.7,14.9,14.9v109.4C1508.8,1474,1502.1,1480.6,1493.9,1480.6z"/>
		</g>
		<g class="st15">
			<g>
				<path d="M1671.4,1555.3l-165.3-330.7c-2.5-5-7.4-7.5-12.2-7.5v358h165.3C1669.4,1575,1676,1564.3,1671.4,1555.3z"/>
			</g>
		</g>
	</g>
	<g>
		<g>
			<polygon class="st20" points="1136,566.8 985.2,431.9 1286.8,431.9 			"/>
			<polygon class="st21" points="1136,297 985.2,431.9 1286.8,431.9 			"/>
			<path class="st14" d="M1245.1,357.7H1136h-109.1c-5,0-9,4-9,9v163.7H1136h118.1V366.7C1254.1,361.8,1250.1,357.7,1245.1,357.7z"
				/>
			<g>
				<path class="st22" d="M1219.6,506.6h-133.5h-33.6c-2,0-3.6,1.6-3.6,3.6c0,2,1.6,3.6,3.6,3.6h33.6h133.5c2,0,3.6-1.6,3.6-3.6
					C1223.2,508.2,1221.5,506.6,1219.6,506.6z"/>
				<path class="st22" d="M1052.4,391.8h33.6h133.5c2,0,3.6-1.6,3.6-3.6c0-2-1.6-3.6-3.6-3.6h-133.5h-33.6c-2,0-3.6,1.6-3.6,3.6
					C1048.8,390.2,1050.5,391.8,1052.4,391.8z"/>
				<path class="st22" d="M1219.6,415.1h-133.5h-33.6c-2,0-3.6,1.6-3.6,3.6c0,2,1.6,3.6,3.6,3.6h33.6h133.5c2,0,3.6-1.6,3.6-3.6
					C1223.2,416.7,1221.5,415.1,1219.6,415.1z"/>
				<path class="st22" d="M1219.6,445.6h-133.5h-33.6c-2,0-3.6,1.6-3.6,3.6c0,2,1.6,3.6,3.6,3.6h33.6h133.5c2,0,3.6-1.6,3.6-3.6
					C1223.2,447.2,1221.5,445.6,1219.6,445.6z"/>
				<path class="st22" d="M1219.6,476.1h-133.5h-33.6c-2,0-3.6,1.6-3.6,3.6c0,2,1.6,3.6,3.6,3.6h33.6h133.5c2,0,3.6-1.6,3.6-3.6
					C1223.2,477.7,1221.5,476.1,1219.6,476.1z"/>
			</g>
			<polygon class="st13" points="1096.2,530.5 985.2,629.7 985.2,431.9 			"/>
			<polygon class="st13" points="1175.8,530.5 1286.8,629.7 1286.8,431.9 			"/>
			<polygon class="st20" points="1136,494.8 985.2,629.7 1286.8,629.7 			"/>
		</g>
		<g>
			<g>
				<path class="st4" d="M1136,324.8c-15.1,0-27.4-12.3-27.4-27.4v-15.4c0-1.5,0.9-2.8,2.3-3.4c1.4-0.6,3-0.3,4,0.8l12,12l-5.2,5.2
					l-5.8-5.8v6.5c0,11,9,20,20,20c11,0,20-9,20-20c0-11-9-20-20-20c-2,0-3.7-1.6-3.7-3.7v-39.4h7.4v35.9
					c13.4,1.8,23.7,13.3,23.7,27.1C1163.4,312.6,1151.1,324.8,1136,324.8z"/>
			</g>
			<g>
				<rect x="1133.7" class="st4" width="4.6" height="229"/>
			</g>
			<g>
				<ellipse class="st13" cx="1136" cy="216.1" rx="16.5" ry="24.3"/>
			</g>
			<g>
				<ellipse class="st4" cx="1136" cy="216.1" rx="10.5" ry="18.3"/>
			</g>
		</g>
		<polygon class="st21" points="1136,297 1136,332.7 1175.9,332.7 		"/>
		<line class="st23" x1="1136" y1="312.5" x2="1136" y2="329.8"/>
		<path class="st15" d="M1286.8,431.9l-32.7-29.2v-35.9c0-5-4-9-9-9h-41.2L1136,297l0,0v332.7h150.8V431.9z"/>
	</g>
	<g class="st15">
		<path d="M1896.3,1338.4c-13.3,0-26,2.9-37.4,7.9c-11.2-49.6-55.4-86.7-108.4-86.7v263.5h145.8c51,0,92.3-41.3,92.3-92.4
			C1988.6,1379.8,1947.2,1338.4,1896.3,1338.4z"/>
	</g>
	<g>
		<polyline class="st1" points="774.9,361.1 774.9,402.3 705.6,471.6 705.6,524.4 		"/>
		<polyline class="st1" points="946.7,380.1 882.5,380.1 861.4,401 774.9,401 		"/>
		<polyline class="st1" points="891.6,442.7 863.4,442.7 842.3,421.8 795.7,421.8 795.7,401 		"/>
		<polyline class="st1" points="705.6,616.4 705.6,524.4 795.7,524.4 		"/>
		<polyline class="st1" points="705.6,524.4 615.5,524.4 558.9,581 426,581 		"/>
		<line class="st1" x1="842.3" y1="421.8" x2="842.3" y2="570.4"/>
		<line class="st1" x1="842.3" y1="489.7" x2="946.7" y2="489.7"/>
		<path class="st2" d="M938.2,380.1c0,4.7,3.8,8.5,8.5,8.5s8.5-3.8,8.5-8.5c0-4.7-3.8-8.5-8.5-8.5S938.2,375.4,938.2,380.1z"/>
		<path class="st2" d="M938.2,489.7c0,4.7,3.8,8.5,8.5,8.5s8.5-3.8,8.5-8.5c0-4.7-3.8-8.5-8.5-8.5S938.2,485,938.2,489.7z"/>
		<path class="st2" d="M766.4,361.6c0,4.7,3.8,8.5,8.5,8.5c4.7,0,8.5-3.8,8.5-8.5s-3.8-8.5-8.5-8.5
			C770.2,353.1,766.4,356.9,766.4,361.6z"/>
		<path class="st2" d="M697.1,616.4c0,4.7,3.8,8.5,8.5,8.5s8.5-3.8,8.5-8.5s-3.8-8.5-8.5-8.5S697.1,611.7,697.1,616.4z"/>
		<path class="st2" d="M787.2,524.4c0,4.7,3.8,8.5,8.5,8.5s8.5-3.8,8.5-8.5s-3.8-8.5-8.5-8.5S787.2,519.7,787.2,524.4z"/>
		<path class="st2" d="M833.8,570.4c0,4.7,3.8,8.5,8.5,8.5s8.5-3.8,8.5-8.5s-3.8-8.5-8.5-8.5S833.8,565.7,833.8,570.4z"/>
		<path class="st2" d="M883.1,442.7c0,4.7,3.8,8.5,8.5,8.5c4.7,0,8.5-3.8,8.5-8.5c0-4.7-3.8-8.5-8.5-8.5
			C886.9,434.2,883.1,438,883.1,442.7z"/>
		<line class="st1" x1="852" y1="191.8" x2="852" y2="401"/>
	</g>
	<g>
		<polyline class="st1" points="1528.7,539.9 1528.7,445.5 1572.2,402 1647.3,402 1647.4,379.4 1628,360 1560.7,360 1560.7,324.8 
			1524.6,324.8 		"/>
		<polyline class="st1" points="1491.7,412.1 1524.6,379.1 1524.6,240.5 		"/>
		<polyline class="st1" points="1613,402 1613,424.3 1589,448.3 1589,511.1 1609.9,532 1609.9,569.6 1560,569.6 1543.6,586.1 
			1507.3,586.1 1478.7,557.5 1469.2,557.5 1469.2,578.9 1455,593.1 1455,624.9 1486.7,624.9 1502.9,608.7 1582.1,608.7 		"/>
		<path class="st2" d="M1582.1,600.2c4.7,0,8.5,3.8,8.5,8.5c0,4.7-3.8,8.5-8.5,8.5s-8.5-3.8-8.5-8.5
			C1573.6,604,1577.4,600.2,1582.1,600.2z"/>
		<path class="st2" d="M1491.7,403.6c4.7,0,8.5,3.8,8.5,8.5c0,4.7-3.8,8.5-8.5,8.5s-8.5-3.8-8.5-8.5
			C1483.2,407.4,1487,403.6,1491.7,403.6z"/>
		<path class="st2" d="M1528.7,531.4c4.7,0,8.5,3.8,8.5,8.5s-3.8,8.5-8.5,8.5c-4.7,0-8.5-3.8-8.5-8.5S1524,531.4,1528.7,531.4z"/>
		<line class="st1" x1="1528.7" y1="511.1" x2="1321.9" y2="511.1"/>
		<path class="st2" d="M1321.9,502.6c4.7,0,8.5,3.8,8.5,8.5c0,4.7-3.8,8.5-8.5,8.5c-4.7,0-8.5-3.8-8.5-8.5
			C1313.4,506.4,1317.2,502.6,1321.9,502.6z"/>
		<polyline class="st1" points="1647.4,379.4 1686.5,379.4 1686.5,362.2 		"/>
		<polyline class="st1" points="1609.9,532 1781.5,532 1781.5,471.5 		"/>
	</g>
	<g>
		<line class="st1" x1="1117.3" y1="1651.7" x2="1117.3" y2="1731"/>
		<polyline class="st1" points="1177.5,1730.1 1177.5,1680.6 1198.4,1659.7 1198.4,1622 1148.6,1622 1132.1,1605.6 1095.9,1605.6 
			1067.3,1634.2 1057.7,1634.2 1057.7,1612.7 1043.5,1598.5 1043.5,1566.8 1075.3,1566.8 1091.5,1583 1170.6,1583 		"/>
		<path class="st2" d="M1170.6,1591.5c4.7,0,8.5-3.8,8.5-8.5s-3.8-8.5-8.5-8.5s-8.5,3.8-8.5,8.5S1165.9,1591.5,1170.6,1591.5z"/>
		<path class="st2" d="M1117.3,1660.2c4.7,0,8.5-3.8,8.5-8.5s-3.8-8.5-8.5-8.5c-4.7,0-8.5,3.8-8.5,8.5S1112.6,1660.2,1117.3,1660.2z
			"/>
		<polyline class="st1" points="1117.3,1680.6 926,1680.6 926,1703.2 		"/>
		<polyline class="st1" points="1198.4,1659.7 1370.1,1659.7 1370.1,1696.2 		"/>
	</g>
	<g>
		<polyline class="st1" points="1309.3,433 1309.3,391 1385.1,391 1427,349.1 1427,266.3 1524.6,266.3 		"/>
		<polyline class="st1" points="1309.3,311.4 1322.7,311.4 1354.4,343.1 1426.7,343.1 		"/>
		<polyline class="st1" points="1427,279.3 1372.5,279.3 1359.4,266.3 1323.6,266.3 		"/>
		<polyline class="st1" points="1419,357.2 1341.2,357.2 1328.1,344.2 1292.1,344.2 		"/>
		<line class="st1" x1="1363.2" y1="311.2" x2="1427" y2="311.2"/>
		<line class="st1" x1="1361.4" y1="391" x2="1361.4" y2="429.7"/>
		<path class="st2" d="M1323.6,257.8c-4.7,0-8.5,3.8-8.5,8.5c0,4.7,3.8,8.5,8.5,8.5s8.5-3.8,8.5-8.5
			C1332.1,261.6,1328.3,257.8,1323.6,257.8z"/>
		<path class="st2" d="M1363.2,302.7c-4.7,0-8.5,3.8-8.5,8.5c0,4.7,3.8,8.5,8.5,8.5c4.7,0,8.5-3.8,8.5-8.5
			C1371.7,306.5,1367.9,302.7,1363.2,302.7z"/>
		<path class="st2" d="M1309.3,302.9c-4.7,0-8.5,3.8-8.5,8.5c0,4.7,3.8,8.5,8.5,8.5c4.7,0,8.5-3.8,8.5-8.5
			C1317.8,306.7,1314,302.9,1309.3,302.9z"/>
		<path class="st2" d="M1292.1,335.7c-4.7,0-8.5,3.8-8.5,8.5s3.8,8.5,8.5,8.5c4.7,0,8.5-3.8,8.5-8.5S1296.8,335.7,1292.1,335.7z"/>
		<path class="st2" d="M1309.3,424.5c-4.7,0-8.5,3.8-8.5,8.5c0,4.7,3.8,8.5,8.5,8.5c4.7,0,8.5-3.8,8.5-8.5
			C1317.8,428.3,1314,424.5,1309.3,424.5z"/>
		<path class="st2" d="M1361.4,417.1c-4.7,0-8.5,3.8-8.5,8.5c0,4.7,3.8,8.5,8.5,8.5c4.7,0,8.5-3.8,8.5-8.5
			C1369.9,420.9,1366.1,417.1,1361.4,417.1z"/>
	</g>
</g>
</svg>
